<svg xmlns="http://www.w3.org/2000/svg" version="1.1" xmlns:xlink="http://www.w3.org/1999/xlink" xmlns:svgjs="http://svgjs.dev/svgjs" width="100%" height="100%" viewBox="0 0 1000 600"><rect width="1000" height="600" x="0" y="0" fill="#0e5e6f"/><g><rect width="333.3333333333333" height="333.3333333333333" y="148.9904274061384" fill="#ffefd6" transform="matrix(0.9860517174817388,0,0,0.9860517174817388,0,-11.254215824670041)" x="126.76820373535155"/><path d="M350.47280498266116 361.00728314195015L350.47280498266116 361.00728314195015L349.0428438294915 390.24852958023615L238.6440062286571 390.6570899097133L236.39692441653332 245.06369821249868L269.7237741495899 240.65708323028193Q268.0895328316817 256.6784847219177 266.48447439445044 273.5461897531844Q264.9085988378961 290.41389478445126 263.68291784946496 307.6026115031643Q262.45723686103383 324.79132822187734 261.72766484411045 341.8341305372058Q260.9980928271872 358.84774997185724 261.1148243498949 375.1609802702623L261.1148243498949 375.1609802702623L261.1148243498949 379.7718754172176Q266.45529151377343 379.56759525247907 274.0428404897758 379.0131205196173Q281.6303894657782 378.45864578675565 290.2393392654732 377.46642784373995Q298.87747194584506 376.50339278140115 307.8366163136633 375.0150658668776Q316.8249435621584 373.52673895235404 324.96696727102244 371.51312018564573Q333.1381738605635 369.5286842996143 339.79187065490396 366.90222503869046Q346.47475032992145 364.3049486584435 350.47280498266116 361.00728314195015Z " fill="#0e5e6f" transform="matrix(0.9860517174817388,0,0,0.9860517174817388,0,-11.254215824670041)"/><path d="M654.2551265195086 357.57260059734796L654.2551265195086 357.57260059734796L652.865975126351 385.9793290859989L545.6178175688993 386.376229484044L543.4348653796518 244.93793763785666L575.810597848753 240.6570833446568Q574.2229962565729 256.221248953708 572.6637446928245 272.60756538728117Q571.1328431575081 288.9938818208543 569.9421419633729 305.69204856717704Q568.7514407692379 322.3902153134998 568.0426900584432 338.94663191766375Q567.3339393476485 355.4746984933957 567.4473394613757 371.32236438676495L567.4473394613757 371.32236438676495L567.4473394613757 375.8016688789873Q572.6353946643927 375.60321867996475 580.0064020566575 375.06456813976087Q587.3774094489222 374.52591759955686 595.7406678362995 373.5620166328761Q604.1322762521086 372.62646569462714 612.8357349806673 371.1806142446059Q621.5675437376577 369.7347627945848 629.4772016701264 367.77861083279146Q637.415209631027 365.85080889943 643.8790161134744 363.2993063405691Q650.3711726243538 360.77615381014 654.2551265195086 357.57260059734796ZM771.1706437721999 339.2301322019816L771.1706437721999 339.2301322019816Q771.1706437721999 351.30724431392304 766.4361890240914 360.6060536395492Q761.7017342759829 369.93321299360724 753.8771264288096 376.36866944762306Q746.0525185816363 382.80412590163877 735.7898082893291 386.12107922815795Q725.5270979970222 389.4663825831088 714.4422368801933 389.4663825831088L714.4422368801933 389.4663825831088Q703.4991259055234 389.4663825831088 694.2570166367607 385.66747877324934Q685.0432573964298 381.89692499182155 678.3810007149598 375.177968253488Q671.6903940050579 368.4306614867226 667.948190252062 359.2169022463917Q664.2059864990661 350.0031430060607 664.2059864990661 339.03168200295903L664.2059864990661 339.03168200295903Q664.2059864990661 328.2586711988799 668.6569409628567 318.90316181638997Q673.0795453982155 309.5476524339001 680.5072528473438 302.5168453828169Q687.9349602964721 295.48603833173365 697.6023199917115 291.43198426598804Q707.2696796869511 287.4062802286742 717.8442402920077 287.4062802286742L717.8442402920077 287.4062802286742Q729.2976517784499 287.4062802286742 739.0784115874166 291.20518403853373Q748.8308213679514 294.9757378199614 755.9750285327618 301.8647947288857Q763.0908856691404 308.7255016093783 767.1165897064543 318.2511111624589Q771.1706437721999 327.7767207155394 771.1706437721999 339.2301322019816ZM746.0525185816363 338.23788120686896L746.0525185816363 338.23788120686896Q746.0525185816363 333.7585767146466 745.4571679845687 328.9107218528109Q744.8618173875011 324.0912170194071 743.5010160227754 319.44181235659397Q742.1685646864813 314.8207577222126 740.0139625256655 310.68165357117164Q737.8877103932815 306.5425494201306 734.6841571804895 303.39569626420223Q731.5089539961293 300.2771931367057 727.1997496744976 298.4344412886395Q722.9188953812977 296.5916894405733 717.4473398939627 296.5916894405733L717.4473398939627 296.5916894405733Q709.0840815065854 296.5916894405733 703.5841759908187 300.61739347788716Q698.1126205034838 304.6430975152009 694.9657673475554 310.8801037701942Q691.818914191627 317.1171100251874 690.5715129406283 324.5731675027475Q689.3241116896297 332.0575750087393 689.3241116896297 338.8332318039365L689.3241116896297 338.8332318039365Q689.3241116896297 343.31253629615895 689.8911122582654 348.16039115799464Q690.4297627984694 352.97989599139845 691.7338641063316 357.6860007110752Q693.0096153857621 362.3637554023201 695.1075174897144 366.5879096386564Q697.2054195936666 370.8404139034246 700.3522727495949 374.07231714464825Q703.4991259055234 377.30422038587204 707.7232801418597 379.20367229080176Q711.947434378196 381.1031241957316 717.4473398939627 381.1031241957316L717.4473398939627 381.1031241957316Q723.0322954950249 381.1031241957316 727.3131497882248 379.14697223393824Q731.5940040814246 377.21917030057665 734.7408572373531 373.9589170309211Q737.8877103932815 370.7270137896973 740.0706625825292 366.38945943963387Q742.2536147717767 362.0519050895704 743.557716079639 357.3174503414619Q744.8618173875011 352.5829955933535 745.4571679845687 347.6500906462224Q746.0525185816363 342.71718569909143 746.0525185816363 338.23788120686896ZM859.9629328205581 292.0840349199191L887.3774103140964 293.699986540531L881.3955543149893 385.9793290859989L863.8468867157128 387.56693067817906L862.8546357206003 365.1420581886352Q860.5582834176255 370.7270137896973 857.1846300342429 375.4047684809423Q853.7826266224283 380.110873200619 849.3600221870695 383.4845265840017Q844.9090677232789 386.88652999581615 839.4375122359439 388.7576318723141Q833.965956748609 390.65708377724394 827.5872003514569 390.65708377724394L827.5872003514569 390.65708377724394Q817.6079903434677 390.65708377724394 809.9818326953168 386.7164298252255Q802.355675047166 382.80412590163877 797.2243199010124 375.8016688789873Q792.0929647548589 368.8275618847676 789.5131121675663 359.2169022463917Q786.9049095518419 349.60624260801575 786.9049095518419 338.23788120686896L786.9049095518419 338.23788120686896Q786.9049095518419 325.99066892433683 788.6909613430445 316.86195976930134Q790.5053631626788 307.7332506142658 792.8017154656536 301.46789433084075L792.8017154656536 301.46789433084075Q795.3815680529462 294.18193702387134 798.7835714647608 288.9938818208543L798.7835714647608 288.9938818208543L827.2753500387071 291.48868432285155Q822.3991451484396 297.3854902366634 818.6002413385802 305.5502984250181L818.6002413385802 305.5502984250181Q815.3116380404929 312.5244054192378 812.6183853394731 322.90051582527207Q809.9251326384533 333.24827620287437 809.9251326384533 346.7995897932688L809.9251326384533 346.7995897932688Q809.9251326384533 354.9927480100553 811.824584543383 360.8612038954354Q813.7240364483127 366.7580098092471 817.2110899454226 370.5852636475384Q820.6981434425325 374.4125174858297 825.6310483896634 376.1985692770323Q830.5639533367945 378.0129710966667 836.7442595349241 378.0129710966667L836.7442595349241 378.0129710966667Q842.0173648232366 378.0129710966667 846.0997689174139 375.1212681966244Q850.2105230400232 372.22956529658205 853.300676139088 367.63686069063255Q856.3908292381527 363.04415608468304 858.5170813705369 357.28910031303013Q860.6716835313528 351.50569451294547 862.0608349245103 345.8073387981562L862.0608349245103 345.8073387981562L859.9629328205581 292.0840349199191Z " fill="#ffefd6" transform="matrix(0.9860517174817388,0,0,0.9860517174817388,0,-11.254215824670041)"/></g></svg>